<?xml version="1.0"?>
<svg xmlns="http://www.w3.org/2000/svg" height="512px" viewBox="0 0 384 384" width="512px"><path d="m56.167969 327.753906c.007812.007813.023437.015625.03125.023438.015625.015625.03125.039062.046875.054687 12.082031 11.984375 25.339844 22.191407 39.402344 30.328125 29.144531 16.902344 62.457031 25.839844 96.351562 25.839844 105.863281 0 192-86.128906 192-192 0-33.894531-8.9375-67.207031-25.832031-96.328125-8.152344-14.097656-18.359375-27.359375-30.34375-39.425781-.007813-.007813-.023438-.015625-.03125-.023438-.015625-.015625-.03125-.039062-.050781-.054687-12.078126-11.984375-25.335938-22.191407-39.398438-30.328125-29.136719-16.902344-62.449219-25.839844-96.34375-25.839844-105.863281 0-192 86.128906-192 192 0 33.894531 8.9375 67.207031 25.832031 96.328125 8.144531 14.097656 18.351563 27.359375 30.335938 39.425781zm203.71875-203.632812c.007812.007812.007812.007812.007812.007812 8.210938 8.214844 14.800781 17.765625 19.617188 28.414063 5.632812 12.394531 8.488281 25.664062 8.488281 39.457031 0 52.9375-43.0625 96-96 96-13.800781 0-27.070312-2.855469-39.496094-8.503906-2.65625-1.199219-5.246094-2.511719-7.761718-3.9375-7.550782-4.261719-14.46875-9.519532-20.628907-15.679688-.007812-.007812-.007812-.007812-.007812-.007812-8.210938-8.214844-14.800781-17.765625-19.617188-28.414063-5.632812-12.394531-8.488281-25.664062-8.488281-39.457031 0-52.9375 43.0625-96 96-96 13.800781 0 27.070312 2.855469 39.496094 8.503906 2.65625 1.199219 5.246094 2.511719 7.769531 3.9375 7.542969 4.261719 14.460937 9.511719 20.621094 15.679688zm-67.886719 227.878906c-28.257812 0-56.023438-7.441406-80.3125-21.527344-7.253906-4.191406-14.273438-9.074218-20.960938-14.5625l22.785157-22.789062c.65625.511718 1.382812.910156 2.054687 1.40625 2.65625 1.976562 5.378906 3.839844 8.175782 5.609375 1.152343.726562 2.289062 1.480469 3.472656 2.175781 3.921875 2.296875 7.921875 4.457031 12.089844 6.335938 16.558593 7.527343 34.296874 11.351562 52.695312 11.351562 70.574219 0 128-57.425781 128-128 0-18.390625-3.824219-36.121094-11.34375-52.664062-1.886719-4.175782-4.039062-8.183594-6.335938-12.097657-.703124-1.199219-1.472656-2.359375-2.207031-3.535156-1.753906-2.773437-3.609375-5.488281-5.570312-8.117187-.503907-.675782-.910157-1.417969-1.421875-2.082032l6.039062-6.039062 16.75-16.753906c5.496094 6.6875 10.371094 13.714843 14.578125 20.984374 14.070313 24.28125 21.511719 52.039063 21.511719 80.304688 0 88.222656-71.777344 160-160 160zm0-320c28.257812 0 56.023438 7.441406 80.3125 21.527344 7.253906 4.191406 14.273438 9.074218 20.960938 14.5625l-22.785157 22.789062c-.65625-.511718-1.382812-.910156-2.054687-1.40625-2.65625-1.976562-5.378906-3.839844-8.175782-5.609375-1.152343-.726562-2.289062-1.480469-3.472656-2.175781-3.921875-2.296875-7.921875-4.457031-12.089844-6.335938-16.558593-7.527343-34.296874-11.351562-52.695312-11.351562-70.574219 0-128 57.425781-128 128 0 18.390625 3.824219 36.121094 11.34375 52.664062 1.886719 4.175782 4.039062 8.183594 6.335938 12.097657.703124 1.199219 1.472656 2.359375 2.207031 3.535156 1.753906 2.773437 3.609375 5.488281 5.570312 8.117187.503907.675782.910157 1.417969 1.421875 2.082032l-6.039062 6.039062-16.75 16.753906c-5.496094-6.6875-10.371094-13.714843-14.578125-20.984374-14.070313-24.28125-21.511719-52.039063-21.511719-80.304688 0-88.222656 71.777344-160 160-160zm0 0" fill="#62b6e0"/></svg>
