<?xml version="1.0" encoding="iso-8859-1"?>
<!-- Generator: Adobe Illustrator 16.0.0, SVG Export Plug-In . SVG Version: 6.00 Build 0)  -->
<!DOCTYPE svg PUBLIC "-//W3C//DTD SVG 1.1//EN" "http://www.w3.org/Graphics/SVG/1.1/DTD/svg11.dtd">
<svg xmlns="http://www.w3.org/2000/svg" xmlns:xlink="http://www.w3.org/1999/xlink" version="1.1" id="Capa_1" x="0px" y="0px" width="512px" height="512px" viewBox="0 0 550.101 550.101" style="enable-background:new 0 0 550.101 550.101;" xml:space="preserve">
<g>
	<g>
		<path d="M73.156,437.105c58.813,6.87,107.489-53.623,154.649-79.192c5.496-2.983,22.867-13.131,28.051-4.713    c4.798,7.81,2.175,21.408,2.016,30.206c-0.364,21.588-1.389,43.18-2.417,64.743c-1.2,25.719-2.537,66.729-4.189,92.415h47.567    c-1.652-25.683-2.993-66.696-4.189-92.415c-1.028-21.563-2.053-43.155-2.417-64.743c-0.156-8.798-2.782-22.399,2.017-30.206    c5.181-8.415,22.555,1.732,28.051,4.713c47.161,25.572,95.833,86.062,154.649,79.192c32.151-3.767,51.732-32.781,61.509-61.099    c19.198-55.637,19.823-158.499-38.293-193.532c-88.443-53.327-117.834,115.364-193.027,121.867    c-14.26,1.224-12.188-4.297-8.121-17.886c6.869-22.892,20.015-44.875,34.449-63.822c31.182-40.9,72.672-93.896,63.785-149.107    c-8.127-50.582-68.445-65.132-122.2-63.92c-53.752-1.212-114.074,13.338-122.192,63.92    c-8.886,55.211,32.607,108.208,63.786,149.107c14.434,18.948,27.58,40.928,34.45,63.822c4.07,13.589,6.138,19.109-8.122,17.886    c-75.193-6.503-104.584-175.194-193.028-121.867C-8.175,217.505-7.551,320.367,11.647,376.003    C21.421,404.324,41.002,433.338,73.156,437.105z" fill="#62b6e0"/>
	</g>
</g>
<g>
</g>
<g>
</g>
<g>
</g>
<g>
</g>
<g>
</g>
<g>
</g>
<g>
</g>
<g>
</g>
<g>
</g>
<g>
</g>
<g>
</g>
<g>
</g>
<g>
</g>
<g>
</g>
<g>
</g>
</svg>
